<?xml version="1.0" standalone="no"?>
<!DOCTYPE svg PUBLIC "-//W3C//DTD SVG 20010904//EN"
 "http://www.w3.org/TR/2001/REC-SVG-20010904/DTD/svg10.dtd">
<svg version="1.0" xmlns="http://www.w3.org/2000/svg"
 width="626.000000pt" height="626.000000pt" viewBox="0 0 626.000000 626.000000"
 preserveAspectRatio="xMidYMid meet">

<g transform="translate(0.000000,626.000000) scale(0.100000,-0.100000)"
fill="#000000" stroke="none">
<path d="M3138 4937 c-151 -57 -247 -178 -263 -333 -8 -82 -3 -87 74 -64 34
11 71 20 81 20 13 0 20 10 25 39 10 61 56 125 107 150 128 61 266 -9 293 -149
6 -34 9 -36 78 -53 109 -28 102 -31 100 43 -2 92 -33 168 -98 238 -79 85 -145
115 -265 119 -63 2 -107 -1 -132 -10z"/>
<path d="M2232 4860 c-318 -213 -566 -595 -643 -991 -35 -181 -22 -239 54
-239 58 0 67 15 88 141 10 63 30 155 44 204 34 118 127 307 206 419 75 105
208 242 299 306 108 77 114 84 114 125 0 27 -6 43 -23 56 -35 29 -72 23 -139
-21z"/>
<path d="M2414 4558 c-71 -47 -231 -211 -289 -298 -96 -145 -169 -323 -195
-479 -11 -68 -11 -75 7 -100 15 -19 31 -27 60 -29 53 -4 72 19 89 110 45 234
173 460 344 605 41 35 87 74 103 87 35 31 37 83 4 114 -32 30 -65 28 -123 -10z"/>
<path d="M3100 4463 c-73 -12 -192 -48 -255 -77 -275 -127 -472 -365 -553
-665 -25 -94 -25 -105 -31 -536 -7 -488 -5 -469 -79 -583 -40 -62 -94 -107
-177 -152 -90 -48 -118 -72 -149 -130 -80 -146 -22 -330 126 -404 l52 -26
1220 0 1221 0 50 24 c53 24 112 82 141 138 10 19 19 65 22 111 4 71 2 82 -27
142 -35 71 -74 107 -165 151 -84 41 -161 121 -205 213 l-36 76 -6 440 c-4 264
-11 460 -18 490 -90 404 -395 705 -789 781 -68 13 -281 17 -342 7z m413 -213
c291 -98 503 -354 547 -659 5 -36 10 -235 10 -441 0 -418 4 -448 67 -579 47
-100 168 -221 270 -274 85 -44 103 -66 103 -123 0 -34 -6 -49 -31 -73 l-31
-31 -1191 0 c-1114 0 -1193 2 -1213 18 -30 23 -44 55 -44 94 0 48 21 72 103
115 139 73 260 215 309 363 21 61 22 90 28 505 6 410 8 445 29 520 62 230 215
417 426 521 140 69 213 85 380 81 128 -3 149 -6 238 -37z"/>
<path d="M2690 1765 c0 -8 11 -44 24 -81 62 -171 217 -312 396 -359 73 -19
217 -19 294 1 126 33 265 133 337 245 32 50 79 166 79 194 0 12 -18 15 -89 15
l-89 0 -31 -65 c-37 -80 -109 -153 -188 -192 -53 -26 -67 -28 -168 -28 -101 0
-115 2 -168 28 -79 39 -151 112 -188 192 l-31 65 -89 0 c-71 0 -89 -3 -89 -15z"/>
</g>
</svg>
